<?xml version="1.0" standalone="no"?>
<!DOCTYPE svg PUBLIC "-//W3C//DTD SVG 20010904//EN"
 "http://www.w3.org/TR/2001/REC-SVG-20010904/DTD/svg10.dtd">
<svg version="1.0" xmlns="http://www.w3.org/2000/svg"
 width="602.000000pt" height="632.000000pt" viewBox="0 0 602.000000 632.000000"
 preserveAspectRatio="xMidYMid meet">

<g transform="translate(0.000000,632.000000) scale(0.100000,-0.100000)"
fill="#000000" stroke="none">
<path d="M860 6271 c-91 -37 -322 -275 -444 -456 -25 -38 -46 -73 -46 -78 0
-5 -9 -21 -19 -35 -15 -22 -65 -147 -97 -242 -34 -101 -44 -344 -20 -472 17
-86 62 -222 100 -296 78 -153 275 -402 318 -402 16 0 7 39 -34 161 -41 122
-41 126 -42 264 0 156 20 253 76 372 38 82 90 173 99 173 4 0 9 -44 11 -98 4
-130 37 -200 140 -298 184 -175 218 -227 218 -331 0 -56 -28 -155 -50 -177
-16 -16 -11 -36 10 -36 22 0 214 187 276 270 128 169 163 340 102 483 -29 68
-115 181 -225 297 -173 181 -298 343 -342 441 -81 181 -91 282 -38 392 30 60
32 78 7 68z"/>
<path d="M50 4142 c0 -7 28 -52 40 -62 8 -7 138 -159 185 -215 92 -112 287
-385 322 -450 20 -38 41 -73 47 -77 6 -4 91 -8 188 -8 l176 0 36 42 c20 23 59
76 88 117 46 68 149 208 264 357 21 29 85 106 141 172 56 66 99 122 96 126 -9
9 -1583 7 -1583 -2z"/>
<path d="M2778 3475 c-139 -30 -252 -91 -364 -197 -46 -44 -104 -110 -128
-147 -59 -89 -129 -234 -151 -313 l-17 -64 -58 -12 c-105 -22 -335 -26 -420
-8 -126 27 -126 27 -150 -51 -11 -38 -36 -99 -55 -136 -19 -38 -33 -73 -29
-78 8 -14 58 -33 154 -59 73 -20 109 -24 255 -24 145 -1 183 3 260 22 94 24
187 62 217 88 15 15 19 13 49 -22 187 -223 366 -313 599 -301 261 13 481 163
597 406 40 83 82 227 83 279 0 59 76 112 162 112 51 0 141 -41 181 -82 42 -44
97 -147 121 -227 10 -36 16 -92 16 -162 0 -131 -25 -223 -98 -352 -83 -148
-260 -287 -413 -322 -38 -8 -114 -15 -173 -15 -123 0 -223 27 -321 85 -33 20
-64 37 -69 38 -8 2 -10 -1863 -1 -1871 8 -9 670 -10 686 -2 13 7 17 33 23 125
12 224 81 394 213 531 43 44 99 93 125 108 27 15 121 54 210 86 294 105 430
170 538 254 89 69 269 252 300 303 14 23 30 41 35 39 6 -1 22 -52 36 -112 37
-151 50 -356 38 -604 -10 -197 -14 -239 -44 -410 -19 -104 -29 -130 -50 -130
-19 0 -25 21 -65 244 -19 107 -26 125 -88 237 -37 65 -149 177 -209 208 -62
31 -117 28 -154 -8 -20 -21 -29 -39 -29 -62 0 -28 14 -46 99 -130 76 -73 108
-113 134 -165 67 -134 96 -245 104 -397 6 -99 8 -109 27 -115 12 -4 174 -5
361 -2 l340 5 -2 370 c-2 552 -7 630 -48 790 -53 205 -115 349 -194 450 -26
33 -54 71 -63 85 -33 53 -113 133 -162 161 -28 16 -54 29 -57 29 -4 0 -14 -21
-24 -47 -9 -27 -34 -77 -55 -113 -21 -36 -48 -85 -60 -110 -37 -74 -107 -157
-182 -216 -275 -220 -386 -285 -574 -339 -81 -23 -139 -47 -210 -89 -201 -117
-267 -173 -349 -296 -58 -85 -135 -278 -142 -353 -3 -32 -10 -60 -14 -63 -5
-3 -9 -14 -9 -24 0 -26 -19 -35 -37 -17 -13 13 -16 78 -21 439 -4 232 -7 526
-7 653 l0 230 55 7 c117 16 217 42 275 71 185 96 322 223 426 395 60 100 85
167 104 282 26 154 13 300 -39 450 -36 104 -81 172 -171 259 -137 131 -254
171 -362 122 -23 -11 -97 -68 -165 -128 -168 -148 -187 -163 -204 -163 -8 0
-14 9 -14 20 0 23 83 161 141 233 21 27 39 56 39 63 0 16 -92 96 -168 147 -70
46 -187 96 -267 113 -75 16 -241 16 -317 -1z"/>
<path d="M670 3210 c0 -38 108 -239 178 -333 39 -51 102 -123 141 -159 104
-98 285 -216 315 -205 13 5 88 150 111 216 8 24 13 51 10 60 -3 9 -26 27 -52
41 -94 49 -258 232 -322 358 l-21 42 -180 0 c-174 0 -180 -1 -180 -20z"/>
<path d="M4606 2524 c-10 -27 -7 -192 4 -199 6 -4 45 -15 88 -25 79 -19 219
-66 237 -80 6 -4 60 -34 120 -66 131 -68 206 -126 311 -237 182 -193 230 -285
303 -578 62 -253 61 -244 69 -419 l7 -145 105 0 105 0 4 40 c5 59 -19 352 -34
410 -23 88 -127 388 -156 450 -86 180 -140 260 -275 408 -189 206 -464 361
-774 438 -92 23 -106 23 -114 3z"/>
</g>
</svg>
